<?xml version="1.0" standalone="no"?>
<!DOCTYPE svg PUBLIC "-//W3C//DTD SVG 20010904//EN"
 "http://www.w3.org/TR/2001/REC-SVG-20010904/DTD/svg10.dtd">
<svg version="1.0" xmlns="http://www.w3.org/2000/svg"
 width="1200.000000pt" height="1200.000000pt" viewBox="0 0 1200.000000 1200.000000"
 preserveAspectRatio="xMidYMid meet">
<metadata>
Created by potrace 1.14, written by Peter Selinger 2001-2017
</metadata>
<g transform="translate(0.000000,1200.000000) scale(0.100000,-0.100000)"
fill="#000000" stroke="none">
<path d="M0 6000 l0 -6000 6000 0 6000 0 0 6000 0 6000 -6000 0 -6000 0 0
-6000z m7052 2623 c156 -70 242 -263 190 -424 -62 -189 -1785 -4668 -1809
-4703 -37 -53 -116 -112 -175 -132 -26 -8 -78 -15 -116 -15 -99 0 -168 29
-241 99 -75 73 -103 142 -105 257 l0 80 892 2328 c491 1281 900 2343 908 2360
29 54 116 132 174 156 73 28 211 25 282 -6z m-2710 -104 c73 -16 118 -40 172
-95 57 -57 80 -101 97 -183 14 -74 1 -167 -33 -235 -13 -26 -230 -252 -611
-636 -326 -327 -765 -769 -977 -983 l-385 -387 575 -578 c1133 -1137 1377
-1387 1398 -1427 34 -69 47 -157 33 -233 -7 -35 -20 -81 -31 -101 -29 -58 -99
-121 -170 -155 -56 -26 -76 -31 -145 -30 -156 0 -87 -60 -1086 942 -1199 1202
-1363 1370 -1386 1417 -51 102 -53 214 -7 315 29 64 50 85 1394 1433 487 489
899 896 915 904 36 20 118 41 162 42 18 1 56 -4 85 -10z m3489 -3 c26 -8 60
-21 75 -30 16 -8 427 -414 914 -903 1344 -1348 1365 -1369 1394 -1433 46 -101
44 -213 -7 -315 -23 -47 -187 -215 -1386 -1417 -999 -1002 -930 -942 -1086
-942 -69 -1 -89 4 -145 30 -70 34 -141 98 -170 154 -10 20 -24 64 -31 99 -14
74 -1 167 33 235 21 42 256 282 1398 1428 l575 578 -385 387 c-212 214 -651
656 -977 983 -373 376 -598 610 -611 635 -34 69 -47 157 -33 233 7 35 20 81
31 101 22 43 103 127 144 148 81 42 185 54 267 29z"/>
</g>
</svg>
